<?xml version="1.0" encoding="UTF-8" standalone="no"?> <!-- Created with Vectornator for iOS (http://vectornator.io/) --><!DOCTYPE svg PUBLIC "-//W3C//DTD SVG 1.1//EN" "http://www.w3.org/Graphics/SVG/1.1/DTD/svg11.dtd">
<svg height="100%" style="fill-rule:nonzero;clip-rule:evenodd;stroke-linecap:round;stroke-linejoin:round;" xmlns:xlink="http://www.w3.org/1999/xlink" xmlns="http://www.w3.org/2000/svg" xml:space="preserve" width="100%" xmlns:vectornator="http://vectornator.io" version="1.1" viewBox="0 0 120 39">
<metadata>
<vectornator:setting key="DimensionsVisible" value="1"/>
<vectornator:setting key="PencilOnly" value="0"/>
<vectornator:setting key="SnapToPoints" value="0"/>
<vectornator:setting key="GuidesVisible" value="1"/>
<vectornator:setting key="CMYKEnabledKey" value="1"/>
<vectornator:setting key="RulersVisible" value="1"/>
<vectornator:setting key="SnapToEdges" value="0"/>
<vectornator:setting key="OutlineMode" value="0"/>
<vectornator:setting key="DisplayWhiteBackground" value="0"/>
<vectornator:setting key="doHistoryDisabled" value="0"/>
<vectornator:setting key="TimeLapseWatermarkDisabled" value="0"/>
<vectornator:setting key="SnapToGuides" value="1"/>
<vectornator:setting key="Units" value="Points"/>
<vectornator:setting key="IsolateActiveLayer" value="0"/>
<vectornator:setting key="DynamicGuides" value="0"/>
<vectornator:setting key="SnapToGrid" value="0"/>
</metadata>
<defs/>
<g id="Untitled" vectornator:layerName="Untitled">
<path d="M5.928+23.168C4.888+23.168+3.872+23.032+2.88+22.76C1.888+22.488+1.096+22.144+0.504+21.728L1.656+19.448C2.232+19.832+2.92+20.144+3.72+20.384C4.536+20.608+5.336+20.72+6.12+20.72C7.912+20.72+8.808+20.248+8.808+19.304C8.808+18.856+8.576+18.544+8.112+18.368C7.664+18.192+6.936+18.024+5.928+17.864C4.872+17.704+4.008+17.52+3.336+17.312C2.68+17.104+2.104+16.744+1.608+16.232C1.128+15.704+0.888+14.976+0.888+14.048C0.888+12.832+1.392+11.864+2.4+11.144C3.424+10.408+4.8+10.04+6.528+10.04C7.408+10.04+8.288+10.144+9.168+10.352C10.048+10.544+10.768+10.808+11.328+11.144L10.176+13.424C9.088+12.784+7.864+12.464+6.504+12.464C5.624+12.464+4.952+12.6+4.488+12.872C4.04+13.128+3.816+13.472+3.816+13.904C3.816+14.384+4.056+14.728+4.536+14.936C5.032+15.128+5.792+15.312+6.816+15.488C7.84+15.648+8.68+15.832+9.336+16.04C9.992+16.248+10.552+16.6+11.016+17.096C11.496+17.592+11.736+18.296+11.736+19.208C11.736+20.408+11.216+21.368+10.176+22.088C9.136+22.808+7.72+23.168+5.928+23.168ZM20.0796+23.168C18.7836+23.168+17.6156+22.888+16.5756+22.328C15.5356+21.768+14.7196+20.992+14.1276+20C13.5516+18.992+13.2636+17.856+13.2636+16.592C13.2636+15.328+13.5516+14.2+14.1276+13.208C14.7196+12.216+15.5356+11.44+16.5756+10.88C17.6156+10.32+18.7836+10.04+20.0796+10.04C21.3916+10.04+22.5676+10.32+23.6076+10.88C24.6476+11.44+25.4556+12.216+26.0316+13.208C26.6236+14.2+26.9196+15.328+26.9196+16.592C26.9196+17.856+26.6236+18.992+26.0316+20C25.4556+20.992+24.6476+21.768+23.6076+22.328C22.5676+22.888+21.3916+23.168+20.0796+23.168ZM20.0796+20.6C21.1836+20.6+22.0956+20.232+22.8156+19.496C23.5356+18.76+23.8956+17.792+23.8956+16.592C23.8956+15.392+23.5356+14.424+22.8156+13.688C22.0956+12.952+21.1836+12.584+20.0796+12.584C18.9756+12.584+18.0636+12.952+17.3436+13.688C16.6396+14.424+16.2876+15.392+16.2876+16.592C16.2876+17.792+16.6396+18.76+17.3436+19.496C18.0636+20.232+18.9756+20.6+20.0796+20.6ZM34.9963+7.448C33.7323+7.448+33.1003+8.136+33.1003+9.512L33.1003+10.28L36.6283+10.28L36.6283+12.68L33.1963+12.68L33.1963+23L30.1963+23L30.1963+12.68L28.0843+12.68L28.0843+10.28L30.1963+10.28L30.1963+9.464C30.1963+8.088+30.5963+7.008+31.3963+6.224C32.1963+5.424+33.3243+5.024+34.7803+5.024C35.9323+5.024+36.8363+5.256+37.4923+5.72L36.6523+7.976C36.1403+7.624+35.5883+7.448+34.9963+7.448ZM46.3517+22.304C45.9997+22.592+45.5677+22.808+45.0557+22.952C44.5597+23.096+44.0317+23.168+43.4717+23.168C42.0637+23.168+40.9757+22.8+40.2077+22.064C39.4397+21.328+39.0557+20.256+39.0557+18.848L39.0557+12.68L36.9437+12.68L36.9437+10.28L39.0557+10.28L39.0557+7.352L42.0557+7.352L42.0557+10.28L45.4877+10.28L45.4877+12.68L42.0557+12.68L42.0557+18.776C42.0557+19.4+42.2077+19.88+42.5117+20.216C42.8157+20.536+43.2557+20.696+43.8317+20.696C44.5037+20.696+45.0637+20.52+45.5117+20.168L46.3517+22.304Z" opacity="1" fill="#1295c0"/>
<path d="M5.928+23.168C4.888+23.168+3.872+23.032+2.88+22.76C1.888+22.488+1.096+22.144+0.504+21.728L1.656+19.448C2.232+19.832+2.92+20.144+3.72+20.384C4.536+20.608+5.336+20.72+6.12+20.72C7.912+20.72+8.808+20.248+8.808+19.304C8.808+18.856+8.576+18.544+8.112+18.368C7.664+18.192+6.936+18.024+5.928+17.864C4.872+17.704+4.008+17.52+3.336+17.312C2.68+17.104+2.104+16.744+1.608+16.232C1.128+15.704+0.888+14.976+0.888+14.048C0.888+12.832+1.392+11.864+2.4+11.144C3.424+10.408+4.8+10.04+6.528+10.04C7.408+10.04+8.288+10.144+9.168+10.352C10.048+10.544+10.768+10.808+11.328+11.144L10.176+13.424C9.088+12.784+7.864+12.464+6.504+12.464C5.624+12.464+4.952+12.6+4.488+12.872C4.04+13.128+3.816+13.472+3.816+13.904C3.816+14.384+4.056+14.728+4.536+14.936C5.032+15.128+5.792+15.312+6.816+15.488C7.84+15.648+8.68+15.832+9.336+16.04C9.992+16.248+10.552+16.6+11.016+17.096C11.496+17.592+11.736+18.296+11.736+19.208C11.736+20.408+11.216+21.368+10.176+22.088C9.136+22.808+7.72+23.168+5.928+23.168ZM20.0796+23.168C18.7836+23.168+17.6156+22.888+16.5756+22.328C15.5356+21.768+14.7196+20.992+14.1276+20C13.5516+18.992+13.2636+17.856+13.2636+16.592C13.2636+15.328+13.5516+14.2+14.1276+13.208C14.7196+12.216+15.5356+11.44+16.5756+10.88C17.6156+10.32+18.7836+10.04+20.0796+10.04C21.3916+10.04+22.5676+10.32+23.6076+10.88C24.6476+11.44+25.4556+12.216+26.0316+13.208C26.6236+14.2+26.9196+15.328+26.9196+16.592C26.9196+17.856+26.6236+18.992+26.0316+20C25.4556+20.992+24.6476+21.768+23.6076+22.328C22.5676+22.888+21.3916+23.168+20.0796+23.168ZM20.0796+20.6C21.1836+20.6+22.0956+20.232+22.8156+19.496C23.5356+18.76+23.8956+17.792+23.8956+16.592C23.8956+15.392+23.5356+14.424+22.8156+13.688C22.0956+12.952+21.1836+12.584+20.0796+12.584C18.9756+12.584+18.0636+12.952+17.3436+13.688C16.6396+14.424+16.2876+15.392+16.2876+16.592C16.2876+17.792+16.6396+18.76+17.3436+19.496C18.0636+20.232+18.9756+20.6+20.0796+20.6ZM34.9963+7.448C33.7323+7.448+33.1003+8.136+33.1003+9.512L33.1003+10.28L36.6283+10.28L36.6283+12.68L33.1963+12.68L33.1963+23L30.1963+23L30.1963+12.68L28.0843+12.68L28.0843+10.28L30.1963+10.28L30.1963+9.464C30.1963+8.088+30.5963+7.008+31.3963+6.224C32.1963+5.424+33.3243+5.024+34.7803+5.024C35.9323+5.024+36.8363+5.256+37.4923+5.72L36.6523+7.976C36.1403+7.624+35.5883+7.448+34.9963+7.448ZM46.3517+22.304C45.9997+22.592+45.5677+22.808+45.0557+22.952C44.5597+23.096+44.0317+23.168+43.4717+23.168C42.0637+23.168+40.9757+22.8+40.2077+22.064C39.4397+21.328+39.0557+20.256+39.0557+18.848L39.0557+12.68L36.9437+12.68L36.9437+10.28L39.0557+10.28L39.0557+7.352L42.0557+7.352L42.0557+10.28L45.4877+10.28L45.4877+12.68L42.0557+12.68L42.0557+18.776C42.0557+19.4+42.2077+19.88+42.5117+20.216C42.8157+20.536+43.2557+20.696+43.8317+20.696C44.5037+20.696+45.0637+20.52+45.5117+20.168L46.3517+22.304Z" opacity="1" fill="#1295c0"/>
<path d="M53.0436+23.216C51.9556+23.216+50.8836+23.096+49.8276+22.856C48.7716+22.6+47.9236+22.272+47.2836+21.872L48.6516+18.752C49.2436+19.12+49.9476+19.416+50.7636+19.64C51.5796+19.848+52.3876+19.952+53.1876+19.952C53.9236+19.952+54.4436+19.88+54.7476+19.736C55.0676+19.576+55.2276+19.352+55.2276+19.064C55.2276+18.776+55.0356+18.576+54.6516+18.464C54.2836+18.336+53.6916+18.216+52.8756+18.104C51.8356+17.976+50.9476+17.808+50.2116+17.6C49.4916+17.392+48.8676+17.008+48.3396+16.448C47.8116+15.888+47.5476+15.104+47.5476+14.096C47.5476+13.264+47.7956+12.528+48.2916+11.888C48.7876+11.232+49.5076+10.72+50.4516+10.352C51.4116+9.968+52.5556+9.776+53.8836+9.776C54.8276+9.776+55.7636+9.872+56.6916+10.064C57.6196+10.256+58.3956+10.528+59.0196+10.88L57.6516+13.976C56.4996+13.336+55.2516+13.016+53.9076+13.016C53.1876+13.016+52.6596+13.104+52.3236+13.28C51.9876+13.44+51.8196+13.656+51.8196+13.928C51.8196+14.232+52.0036+14.448+52.3716+14.576C52.7396+14.688+53.3476+14.808+54.1956+14.936C55.2676+15.096+56.1556+15.28+56.8596+15.488C57.5636+15.696+58.1716+16.08+58.6836+16.64C59.2116+17.184+59.4756+17.952+59.4756+18.944C59.4756+19.76+59.2276+20.496+58.7316+21.152C58.2356+21.792+57.4996+22.296+56.5236+22.664C55.5636+23.032+54.4036+23.216+53.0436+23.216ZM74.7366+16.52C74.7366+16.552+74.7126+16.928+74.6646+17.648L65.2086+17.648C65.4006+18.32+65.7686+18.84+66.3126+19.208C66.8726+19.56+67.5686+19.736+68.4006+19.736C69.0246+19.736+69.5606+19.648+70.0086+19.472C70.4726+19.296+70.9366+19.008+71.4006+18.608L73.8006+21.104C72.5366+22.512+70.6886+23.216+68.2566+23.216C66.7366+23.216+65.4006+22.928+64.2486+22.352C63.0966+21.776+62.2006+20.976+61.5606+19.952C60.9366+18.928+60.6246+17.768+60.6246+16.472C60.6246+15.192+60.9286+14.048+61.5366+13.04C62.1606+12.016+63.0166+11.216+64.1046+10.64C65.1926+10.064+66.4166+9.776+67.7766+9.776C69.0726+9.776+70.2486+10.048+71.3046+10.592C72.3606+11.12+73.1926+11.896+73.8006+12.92C74.4246+13.928+74.7366+15.128+74.7366+16.52ZM67.8006+13.016C67.0966+13.016+66.5046+13.216+66.0246+13.616C65.5606+14.016+65.2646+14.56+65.1366+15.248L70.4646+15.248C70.3366+14.56+70.0326+14.016+69.5526+13.616C69.0886+13.216+68.5046+13.016+67.8006+13.016ZM81.183+11.552C81.647+10.96+82.247+10.52+82.983+10.232C83.735+9.928+84.591+9.776+85.551+9.776L85.551+13.88C85.135+13.832+84.791+13.808+84.519+13.808C83.543+13.808+82.775+14.072+82.215+14.6C81.671+15.128+81.399+15.936+81.399+17.024L81.399+23L76.839+23L76.839+9.992L81.183+9.992L81.183+11.552ZM101.535+9.992L96.1592+23L91.4552+23L86.1032+9.992L90.7832+9.992L93.9032+17.936L97.1912+9.992L101.535+9.992ZM115.658+16.52C115.658+16.552+115.634+16.928+115.586+17.648L106.13+17.648C106.322+18.32+106.69+18.84+107.234+19.208C107.794+19.56+108.49+19.736+109.322+19.736C109.946+19.736+110.482+19.648+110.93+19.472C111.394+19.296+111.858+19.008+112.322+18.608L114.722+21.104C113.458+22.512+111.61+23.216+109.178+23.216C107.658+23.216+106.322+22.928+105.17+22.352C104.018+21.776+103.122+20.976+102.482+19.952C101.858+18.928+101.546+17.768+101.546+16.472C101.546+15.192+101.85+14.048+102.458+13.04C103.082+12.016+103.938+11.216+105.026+10.64C106.114+10.064+107.338+9.776+108.698+9.776C109.994+9.776+111.17+10.048+112.226+10.592C113.282+11.12+114.114+11.896+114.722+12.92C115.346+13.928+115.658+15.128+115.658+16.52ZM108.722+13.016C108.018+13.016+107.426+13.216+106.946+13.616C106.482+14.016+106.186+14.56+106.058+15.248L111.386+15.248C111.258+14.56+110.954+14.016+110.474+13.616C110.01+13.216+109.426+13.016+108.722+13.016Z" opacity="1" fill="#211d4d"/>
<path d="M6.31+30.58L6.31+36L4.5+36L4.5+35.42C4.3+35.64+4.06+35.8067+3.78+35.92C3.5+36.0333+3.20333+36.09+2.89+36.09C2.19+36.09+1.63+35.8833+1.21+35.47C0.796667+35.0567+0.59+34.4367+0.59+33.61L0.59+30.58L2.49+30.58L2.49+33.3C2.49+33.7067+2.56667+34.0033+2.72+34.19C2.87333+34.3767+3.09667+34.47+3.39+34.47C3.69+34.47+3.93333+34.3667+4.12+34.16C4.31333+33.9467+4.41+33.6233+4.41+33.19L4.41+30.58L6.31+30.58ZM11.0638+30.49C11.7372+30.49+12.2772+30.69+12.6838+31.09C13.0972+31.49+13.3038+32.0933+13.3038+32.9L13.3038+36L11.4038+36L11.4038+33.21C11.4038+32.47+11.1072+32.1+10.5138+32.1C10.1872+32.1+9.92383+32.2067+9.72383+32.42C9.53049+32.6333+9.43383+32.9533+9.43383+33.38L9.43383+36L7.53383+36L7.53383+30.58L9.34383+30.58L9.34383+31.17C9.55716+30.95+9.81049+30.7833+10.1038+30.67C10.3972+30.55+10.7172+30.49+11.0638+30.49ZM14.4967+30.58L16.3967+30.58L16.3967+36L14.4967+36L14.4967+30.58ZM15.4467+29.98C15.1001+29.98+14.8201+29.8833+14.6067+29.69C14.3934+29.4967+14.2867+29.2567+14.2867+28.97C14.2867+28.6833+14.3934+28.4433+14.6067+28.25C14.8201+28.0567+15.1001+27.96+15.4467+27.96C15.7934+27.96+16.0734+28.0533+16.2867+28.24C16.5001+28.42+16.6067+28.6533+16.6067+28.94C16.6067+29.24+16.5001+29.49+16.2867+29.69C16.0734+29.8833+15.7934+29.98+15.4467+29.98ZM23.3415+30.58L21.1015+36L19.1415+36L16.9115+30.58L18.8615+30.58L20.1615+33.89L21.5315+30.58L23.3415+30.58ZM29.2262+33.3C29.2262+33.3133+29.2162+33.47+29.1962+33.77L25.2562+33.77C25.3362+34.05+25.4895+34.2667+25.7162+34.42C25.9495+34.5667+26.2395+34.64+26.5862+34.64C26.8462+34.64+27.0695+34.6033+27.2562+34.53C27.4495+34.4567+27.6428+34.3367+27.8362+34.17L28.8362+35.21C28.3095+35.7967+27.5395+36.09+26.5262+36.09C25.8928+36.09+25.3362+35.97+24.8562+35.73C24.3762+35.49+24.0028+35.1567+23.7362+34.73C23.4762+34.3033+23.3462+33.82+23.3462+33.28C23.3462+32.7467+23.4728+32.27+23.7262+31.85C23.9862+31.4233+24.3428+31.09+24.7962+30.85C25.2495+30.61+25.7595+30.49+26.3262+30.49C26.8662+30.49+27.3562+30.6033+27.7962+30.83C28.2362+31.05+28.5828+31.3733+28.8362+31.8C29.0962+32.22+29.2262+32.72+29.2262+33.3ZM26.3362+31.84C26.0428+31.84+25.7962+31.9233+25.5962+32.09C25.4028+32.2567+25.2795+32.4833+25.2262+32.77L27.4462+32.77C27.3928+32.4833+27.2662+32.2567+27.0662+32.09C26.8728+31.9233+26.6295+31.84+26.3362+31.84ZM31.9122+31.23C32.1055+30.9833+32.3555+30.8+32.6622+30.68C32.9755+30.5533+33.3322+30.49+33.7322+30.49L33.7322+32.2C33.5589+32.18+33.4155+32.17+33.3022+32.17C32.8955+32.17+32.5755+32.28+32.3422+32.5C32.1155+32.72+32.0022+33.0567+32.0022+33.51L32.0022+36L30.1022+36L30.1022+30.58L31.9122+30.58L31.9122+31.23ZM36.496+36.09C36.0427+36.09+35.596+36.04+35.156+35.94C34.716+35.8333+34.3627+35.6967+34.096+35.53L34.666+34.23C34.9127+34.3833+35.206+34.5067+35.546+34.6C35.886+34.6867+36.2227+34.73+36.556+34.73C36.8627+34.73+37.0793+34.7+37.206+34.64C37.3393+34.5733+37.406+34.48+37.406+34.36C37.406+34.24+37.326+34.1567+37.166+34.11C37.0127+34.0567+36.766+34.0067+36.426+33.96C35.9927+33.9067+35.6227+33.8367+35.316+33.75C35.016+33.6633+34.756+33.5033+34.536+33.27C34.316+33.0367+34.206+32.71+34.206+32.29C34.206+31.9433+34.3093+31.6367+34.516+31.37C34.7227+31.0967+35.0227+30.8833+35.416+30.73C35.816+30.57+36.2927+30.49+36.846+30.49C37.2393+30.49+37.6293+30.53+38.016+30.61C38.4027+30.69+38.726+30.8033+38.986+30.95L38.416+32.24C37.936+31.9733+37.416+31.84+36.856+31.84C36.556+31.84+36.336+31.8767+36.196+31.95C36.056+32.0167+35.986+32.1067+35.986+32.22C35.986+32.3467+36.0627+32.4367+36.216+32.49C36.3693+32.5367+36.6227+32.5867+36.976+32.64C37.4227+32.7067+37.7927+32.7833+38.086+32.87C38.3793+32.9567+38.6327+33.1167+38.846+33.35C39.066+33.5767+39.176+33.8967+39.176+34.31C39.176+34.65+39.0727+34.9567+38.866+35.23C38.6593+35.4967+38.3527+35.7067+37.946+35.86C37.546+36.0133+37.0627+36.09+36.496+36.09ZM39.9948+30.58L41.8948+30.58L41.8948+36L39.9948+36L39.9948+30.58ZM40.9448+29.98C40.5981+29.98+40.3181+29.8833+40.1048+29.69C39.8914+29.4967+39.7848+29.2567+39.7848+28.97C39.7848+28.6833+39.8914+28.4433+40.1048+28.25C40.3181+28.0567+40.5981+27.96+40.9448+27.96C41.2914+27.96+41.5714+28.0533+41.7848+28.24C41.9981+28.42+42.1048+28.6533+42.1048+28.94C42.1048+29.24+41.9981+29.49+41.7848+29.69C41.5714+29.8833+41.2914+29.98+40.9448+29.98ZM46.8695+35.78C46.7095+35.88+46.5129+35.9567+46.2795+36.01C46.0529+36.0633+45.8095+36.09+45.5495+36.09C44.8429+36.09+44.2995+35.9167+43.9195+35.57C43.5395+35.2233+43.3495+34.7067+43.3495+34.02L43.3495+32.2L42.5595+32.2L42.5595+30.78L43.3495+30.78L43.3495+29.37L45.2495+29.37L45.2495+30.78L46.4895+30.78L46.4895+32.2L45.2495+32.2L45.2495+34C45.2495+34.1933+45.2995+34.3467+45.3995+34.46C45.5062+34.5667+45.6462+34.62+45.8195+34.62C46.0395+34.62+46.2329+34.5633+46.3995+34.45L46.8695+35.78ZM53.2145+30.58L50.8745+36.22C50.6012+36.8867+50.2679+37.3533+49.8745+37.62C49.4812+37.8933+49.0012+38.03+48.4345+38.03C48.1479+38.03+47.8579+37.9833+47.5645+37.89C47.2779+37.8033+47.0445+37.6867+46.8645+37.54L47.5245+36.21C47.6312+36.31+47.7579+36.3867+47.9045+36.44C48.0579+36.5+48.2112+36.53+48.3645+36.53C48.5445+36.53+48.6912+36.4933+48.8045+36.42C48.9245+36.3467+49.0245+36.23+49.1045+36.07L46.7845+30.58L48.7345+30.58L50.0645+33.89L51.4045+30.58L53.2145+30.58Z" opacity="1" fill="#211d4d"/>
</g>
</svg>
